/* XPM */
static char *_650835976113[] = {
/* columns rows colors chars-per-pixel */
"32 32 60 1 ",
"  c #1A0D0B",
". c #2F0D05",
"X c #38150D",
"o c #4B190B",
"O c #561C0A",
"+ c #591D0C",
"@ c #4E1F14",
"# c #69220B",
"$ c #662412",
"% c #712915",
"& c #7B2C14",
"* c #736E68",
"= c #7F7A74",
"- c #8B2F10",
"; c #8F3111",
": c #943619",
"> c #AB3C15",
", c #A33A19",
"< c #A73D1B",
"1 c #A23B1C",
"2 c #B0401C",
"3 c #BD441D",
"4 c #B6482A",
"5 c #D34B1C",
"6 c #D74D1D",
"7 c #D84D1D",
"8 c #DA4E1D",
"9 c #DC4F1E",
"0 c #DD4F1F",
"q c #E5531F",
"w c #E6541F",
"e c #E7561F",
"r c #C34720",
"t c #C84C27",
"y c #D04C20",
"u c #D14C20",
"i c #D44F25",
"p c #E15221",
"a c #E25221",
"s c #E55321",
"d c #E65321",
"f c #E85420",
"g c #E95420",
"h c #E85520",
"j c #E95520",
"k c #BB6553",
"l c #BC6553",
"z c #807B75",
"x c #817C76",
"c c #88837C",
"v c #89847E",
"b c #8A847E",
"n c #8B857F",
"m c #918B84",
"M c #928C85",
"N c #ADA69E",
"B c #ADA79F",
"V c #AEA79F",
"C c #AEA7A0",
"Z c None",
/* pixels */
"ZZZZZZZZZZZZZZZZZZZZZZZZZZZZZZZZ",
"ZZZZZZZZZZZZZZZZZZZZZZZZZZZZZZZZ",
"ZZZZZZZZZZZZZZZZZZZZZZZZZZZZZZZZ",
"ZZZZZggggggggggigggggggggggZZZZZ",
"ZZZZgggggggggggihgggggggggggZZZZ",
"ZZZggggggggggggihgggggggggggZZZZ",
"ZZZggggggggggggidggggggggggggZZZ",
"ZZZgggggr%gggggieggggggggggggZZZ",
"ZZZgggq52$59gggidggg65558ggggZZZ",
"ZZZggg8#O.#>gggieggg;###;ggggZZZ",
"ZZZgggggr%gggggiggggwggggggggZZZ",
"ZZZgggggu<gggggigggggggggggggZZZ",
"ZZZggggggggggggigggggggggggggZZZ",
"ZZZggggggggggggidwgggggggggggZZZ",
"ZZZggggggggggggigggggggggggggZZZ",
"ZZZtttttttttttt4lllllllllllllZZZ",
"ZZZggggggggggggiNCVVVVVVVVVVVZZZ",
"ZZZggggggggggggiNNVVVVVVVVVVVZZZ",
"ZZZggggggggggggiNVVVVVNNVVVVVZZZ",
"ZZZggggggggggggiNVVVVVVNVVVVVZZZ",
"ZZZgggg,30&agggiNVVVnzzzbVVVVZZZ",
"ZZZgggguXo1ggggiNVVVnzzzbVVVVZZZ",
"ZZZgggwq+ 3ggggiNVVVmnbbmNVVVZZZ",
"ZZZgeww:,t@agggiNVVVz***zNVVVZZZ",
"ZZZggggggghggggiNVVVVVVVNVVVCZZZ",
"ZZZgggggggdggggiNVVVVVVVVVVVVZZZ",
"ZZZZgggggggggggiNVVVVVVVVVVVZZZZ",
"ZZZZZggggggggggiNVVVVVVVVVVZZZZZ",
"ZZZZZZgegggggggiNVVVVVVVNZZZZZZZ",
"ZZZZZZZZZZZZZZZZZZZZZZZZZZZZZZZZ",
"ZZZZZZZZZZZZZZZZZZZZZZZZZZZZZZZZ",
"ZZZZZZZZZZZZZZZZZZZZZZZZZZZZZZZZ"
};
